<?xml version="1.0" encoding="UTF-8"?>
<svg xmlns="http://www.w3.org/2000/svg" xmlns:xlink="http://www.w3.org/1999/xlink" width="1190.25pt" height="1683.749945pt" viewBox="0 0 1190.25 1683.749945" version="1.2">
<defs>
<clipPath id="clip1">
  <path d="M 0.753906 333.535156 L 1188.855469 333.535156 L 1188.855469 1351.070312 L 0.753906 1351.070312 Z M 0.753906 333.535156 "/>
</clipPath>
<clipPath id="clip2">
  <path d="M 90 333.535156 L 1188.855469 333.535156 L 1188.855469 1213 L 90 1213 Z M 90 333.535156 "/>
</clipPath>
<clipPath id="clip3">
  <path d="M 45.894531 359.703125 L 1081.800781 359.703125 L 1081.800781 1351.070312 L 45.894531 1351.070312 Z M 45.894531 359.703125 "/>
</clipPath>
</defs>
<g id="surface1">
<g clip-path="url(#clip1)" clip-rule="nonzero">
<path style=" stroke:none;fill-rule:nonzero;fill:rgb(94.509888%,28.62854%,45.878601%);fill-opacity:1;" d="M 1188.863281 775.507812 C 1188.863281 997.773438 1099.796875 1181.6875 983.828125 1212.816406 C 983.828125 1212.816406 891.566406 1248.25 810.054688 1140.773438 C 808.328125 1138.90625 806.359375 1136.683594 804.207031 1134.082031 L 364.335938 1007.335938 C 361.597656 1060.460938 293.910156 1075.289062 278.570312 1077.964844 L 364.242188 1315.507812 C 364.472656 1316.160156 364.425781 1316.875 364.121094 1317.488281 C 363.8125 1318.101562 363.265625 1318.554688 362.609375 1318.75 L 258.476562 1349.84375 C 254.375 1350.984375 250.355469 1351.5625 246.492188 1351.5625 C 202.789062 1351.554688 188.179688 1280.78125 187.585938 1277.769531 L 123.78125 1021.097656 L 119.011719 1021.339844 C 118.964844 1021.339844 118.925781 1021.339844 118.878906 1021.339844 C 118.203125 1021.339844 117.554688 1021.070312 117.078125 1020.578125 C 116.726562 1020.203125 82.683594 984.226562 61.960938 917.644531 C 23.648438 896.292969 -1.847656 857.003906 0.964844 790.523438 C 3.5625 728.933594 31.304688 695.527344 66.433594 678.125 C 74.480469 651.410156 84.875 624.320312 97.609375 597.019531 C 98.027344 596.117188 98.933594 595.550781 99.9375 595.578125 L 378.839844 603.210938 C 379.769531 603.226562 380.605469 603.777344 381.011719 604.613281 C 381.019531 604.621094 381.019531 604.628906 381.019531 604.640625 L 840.976562 379.550781 C 853.65625 366.726562 861.96875 360.417969 862.15625 360.269531 C 863.261719 359.441406 864.828125 359.675781 865.644531 360.78125 C 865.671875 360.808594 865.671875 360.84375 865.703125 360.871094 C 891.632812 343.199219 919.671875 333.535156 948.933594 333.535156 C 1081.445312 333.535156 1188.863281 531.417969 1188.863281 775.507812 "/>
</g>
<g clip-path="url(#clip2)" clip-rule="nonzero">
<path style=" stroke:none;fill-rule:nonzero;fill:rgb(96.859741%,80.389404%,20.388794%);fill-opacity:1;" d="M 682.375 508.128906 C 682.28125 508.054688 682.199219 507.988281 682.105469 507.914062 L 671.332031 512.710938 C 671.292969 512.925781 671.265625 513.148438 671.226562 513.371094 C 671.042969 513.230469 670.914062 513.101562 670.734375 512.96875 L 502.445312 587.867188 C 502.101562 589.242188 501.75 590.609375 501.394531 592.011719 C 499.59375 591.539062 497.988281 591.109375 496.214844 590.636719 L 357.734375 652.261719 C 355.769531 657.1875 353.789062 662.523438 351.84375 668.21875 C 348.863281 682.316406 345.058594 694.171875 341.863281 702.769531 C 341.363281 704.878906 340.863281 707.023438 340.378906 709.207031 C 339.765625 711.984375 339.171875 714.867188 338.597656 717.804688 L 706.367188 705.203125 C 708.925781 669.558594 714.21875 635.128906 722.265625 602.253906 C 734.28125 553.167969 752.398438 507.375 776.09375 466.089844 L 773.375 467.296875 L 684.742188 506.734375 C 683.953125 507.199219 683.152344 507.65625 682.375 508.128906 Z M 97.625 837.332031 L 250.214844 837.332031 C 251.132812 837.332031 252.015625 837.136719 252.832031 836.828125 C 253.140625 836.308594 253.4375 835.789062 253.722656 835.257812 C 253.898438 835.546875 254.066406 835.84375 254.242188 836.121094 C 256.285156 834.804688 257.648438 832.507812 257.648438 829.886719 C 257.648438 825.78125 254.316406 822.445312 250.214844 822.445312 L 97.625 822.445312 C 93.515625 822.445312 90.191406 825.78125 90.191406 829.886719 C 90.191406 833.996094 93.515625 837.332031 97.625 837.332031 Z M 123.484375 786.910156 C 118.824219 791.296875 112.699219 792.671875 109.859375 798.589844 C 120.097656 800.152344 124.671875 796.417969 123.484375 786.910156 Z M 97.625 800.125 C 93.515625 800.125 90.191406 796.789062 90.191406 792.679688 C 90.191406 788.574219 93.515625 785.246094 97.625 785.246094 L 250.214844 785.246094 C 254.316406 785.246094 257.648438 788.574219 257.648438 792.679688 C 257.648438 796.789062 254.316406 800.125 250.214844 800.125 Z M 97.625 749.425781 C 93.515625 749.425781 90.191406 752.75 90.191406 756.867188 C 90.191406 760.976562 93.515625 764.300781 97.625 764.300781 L 250.214844 764.300781 C 254.316406 764.300781 257.648438 760.976562 257.648438 756.867188 C 257.648438 752.75 254.316406 749.425781 250.214844 749.425781 Z M 983.828125 1212.816406 C 1035.191406 1085.222656 1058.996094 973.605469 1064.695312 876.925781 C 1085.894531 857.679688 1100.15625 821.792969 1100.15625 780.664062 C 1100.15625 729.769531 1078.320312 686.894531 1048.527344 673.671875 C 1001.074219 471.351562 873.042969 376.371094 860.894531 367.75 C 863.546875 365.492188 865.070312 364.339844 865.144531 364.28125 C 866.222656 363.476562 866.445312 361.96875 865.703125 360.871094 C 891.632812 343.199219 919.671875 333.535156 948.933594 333.535156 C 1081.445312 333.535156 1188.863281 531.417969 1188.863281 775.507812 C 1188.863281 997.773438 1099.796875 1181.6875 983.828125 1212.816406 "/>
</g>
<g clip-path="url(#clip3)" clip-rule="nonzero">
<path style=" stroke:none;fill-rule:nonzero;fill:rgb(10.198975%,11.759949%,17.649841%);fill-opacity:1;" d="M 1003.441406 769.515625 C 1003.441406 803.191406 1020.871094 830.480469 1042.375 830.480469 C 1063.878906 830.480469 1081.308594 803.191406 1081.308594 769.515625 C 1081.308594 735.839844 1063.878906 708.539062 1042.375 708.539062 C 1020.871094 708.539062 1003.441406 735.839844 1003.441406 769.515625 Z M 68.242188 920.925781 C 77.105469 947.957031 88.066406 969.542969 97.671875 985.367188 C 108.335938 1002.929688 117.332031 1013.394531 119.929688 1016.285156 L 358.496094 1004.304688 C 314.929688 870.570312 321.929688 769.347656 335.574219 707.8125 C 347.878906 652.300781 367.144531 618.921875 374.136719 608.078125 L 374.003906 608.078125 L 312.101562 606.386719 L 101.441406 600.625 C 37.523438 738.664062 46.089844 844.484375 64.585938 909.023438 C 65.757812 913.101562 66.980469 917.070312 68.242188 920.925781 Z M 359.183594 1009.277344 L 128.867188 1020.847656 L 192.449219 1276.683594 C 192.617188 1277.492188 206.875 1346.554688 246.492188 1346.5625 C 249.898438 1346.5625 253.464844 1346.050781 257.09375 1345.039062 L 358.644531 1314.71875 L 272.84375 1076.8125 C 272.582031 1076.097656 272.664062 1075.308594 273.066406 1074.660156 C 273.464844 1074.007812 274.132812 1073.582031 274.882812 1073.488281 C 275.691406 1073.386719 354.339844 1062.800781 359.183594 1009.277344 Z M 364.277344 1007.324219 L 364.335938 1007.335938 C 361.597656 1060.460938 293.910156 1075.289062 278.570312 1077.964844 L 364.242188 1315.507812 C 364.472656 1316.160156 364.425781 1316.875 364.121094 1317.488281 C 363.8125 1318.101562 363.265625 1318.554688 362.609375 1318.75 L 258.476562 1349.84375 C 254.375 1350.984375 250.355469 1351.5625 246.492188 1351.5625 C 202.789062 1351.554688 188.179688 1280.78125 187.585938 1277.769531 L 123.78125 1021.097656 L 119.011719 1021.339844 C 118.964844 1021.339844 118.925781 1021.339844 118.878906 1021.339844 C 118.203125 1021.339844 117.554688 1021.070312 117.078125 1020.578125 C 116.726562 1020.203125 82.683594 984.226562 61.960938 917.644531 C 61.21875 915.265625 60.492188 912.859375 59.789062 910.398438 C 47.816406 868.636719 43.601562 823.929688 47.269531 777.535156 C 49.820312 745.179688 56.242188 711.949219 66.433594 678.125 C 74.480469 651.410156 84.875 624.320312 97.609375 597.019531 C 98.027344 596.117188 98.933594 595.550781 99.9375 595.578125 L 378.839844 603.210938 C 379.769531 603.226562 380.605469 603.777344 381.011719 604.613281 C 381.019531 604.621094 381.019531 604.628906 381.019531 604.640625 C 381.410156 605.46875 381.328125 606.453125 380.78125 607.1875 C 380.613281 607.417969 369.496094 622.796875 357.734375 652.261719 C 355.769531 657.1875 353.789062 662.523438 351.84375 668.21875 C 348.324219 678.488281 344.910156 690 341.863281 702.769531 C 341.363281 704.878906 340.863281 707.023438 340.378906 709.207031 C 339.765625 711.984375 339.171875 714.867188 338.597656 717.804688 C 326.320312 779.8125 321.984375 877.882812 364.261719 1005.847656 C 364.425781 1006.332031 364.417969 1006.84375 364.277344 1007.324219 Z M 1005.398438 881.078125 C 970.566406 837.21875 959.125 789.957031 971.394531 740.597656 C 980.570312 703.6875 1000.332031 679.378906 1000.527344 679.128906 C 1001.398438 678.070312 1001.25 676.488281 1000.191406 675.617188 C 999.125 674.734375 997.546875 674.882812 996.675781 675.949219 C 995.839844 676.960938 976.082031 701.234375 966.605469 739.183594 C 957.832031 774.261719 956.777344 827.890625 1001.480469 884.191406 C 1001.972656 884.816406 1002.707031 885.140625 1003.441406 885.140625 C 1003.988281 885.140625 1004.535156 884.964844 1005 884.59375 C 1006.078125 883.738281 1006.253906 882.15625 1005.398438 881.078125 Z M 1064.695312 876.925781 C 1058.996094 973.605469 1035.191406 1085.222656 983.828125 1212.816406 C 983.828125 1212.816406 891.566406 1248.25 810.054688 1140.773438 C 808.328125 1138.90625 806.359375 1136.683594 804.207031 1134.082031 C 794.859375 1122.820312 781.839844 1104.402344 768.167969 1076.527344 C 744.585938 1028.410156 714.652344 941.769531 706.03125 802.222656 C 703.980469 769.042969 704.109375 736.648438 706.367188 705.203125 C 708.925781 669.558594 714.21875 635.128906 722.265625 602.253906 C 734.28125 553.167969 752.398438 507.375 776.09375 466.089844 L 773.375 467.296875 C 787.109375 442.078125 803.742188 418.78125 823.78125 398.246094 C 830.0625 390.953125 835.871094 384.71875 840.976562 379.550781 C 853.65625 366.726562 861.96875 360.417969 862.15625 360.269531 C 863.261719 359.441406 864.828125 359.675781 865.644531 360.78125 C 865.671875 360.808594 865.671875 360.84375 865.703125 360.871094 C 866.445312 361.96875 866.222656 363.476562 865.144531 364.28125 C 865.070312 364.339844 863.546875 365.492188 860.894531 367.75 C 873.042969 376.371094 1001.074219 471.351562 1048.527344 673.671875 C 1042.363281 670.941406 1035.867188 669.445312 1029.140625 669.445312 C 1024.527344 669.445312 1020.007812 670.160156 1015.636719 671.480469 L 1015.636719 671.472656 L 736.316406 570.882812 C 717.566406 631.4375 705.222656 708.257812 711.015625 801.917969 C 717.234375 902.507812 734.542969 975.339844 752.511719 1025.984375 L 1029.140625 891.878906 C 1042.097656 891.878906 1054.234375 886.414062 1064.695312 876.925781 "/>
</g>
<path style=" stroke:none;fill-rule:nonzero;fill:rgb(49.409485%,75.289917%,64.309692%);fill-opacity:1;" d="M 342.820312 1294.460938 C 342.308594 1294.359375 341.800781 1294.246094 341.289062 1294.144531 C 341.539062 1292.5 341.773438 1290.875 342.023438 1289.230469 C 342.699219 1289.453125 343.386719 1289.675781 344.066406 1289.890625 C 343.648438 1291.414062 343.238281 1292.9375 342.820312 1294.460938 Z M 144.503906 1057.320312 C 144.792969 1058.5 144.949219 1059.707031 145.144531 1060.925781 C 144.488281 1061.007812 143.828125 1061.089844 143.167969 1061.183594 C 143.039062 1059.96875 142.890625 1058.742188 142.871094 1057.523438 C 142.863281 1057.457031 144.488281 1057.246094 144.503906 1057.320312 Z M 216.097656 1146.710938 C 216.644531 1147.78125 216.988281 1148.960938 217.386719 1150.101562 C 216.730469 1150.335938 216.070312 1150.566406 215.410156 1150.800781 C 214.949219 1149.65625 214.472656 1148.515625 214 1147.378906 C 214.734375 1147.140625 216.042969 1146.601562 216.097656 1146.710938 Z M 225.417969 1069.789062 C 224.71875 1069.753906 224.023438 1069.734375 223.320312 1069.707031 C 223.355469 1068.171875 223.394531 1066.648438 223.429688 1065.113281 C 224.164062 1065.144531 224.90625 1065.171875 225.640625 1065.199219 C 225.566406 1066.730469 225.492188 1068.257812 225.417969 1069.789062 Z M 310.855469 1254.214844 C 313.316406 1254.449219 314.960938 1254.597656 316.796875 1254.753906 C 315.015625 1258.351562 314.800781 1258.339844 310.855469 1254.214844 Z M 294.328125 1278.953125 C 296.074219 1279.351562 297.808594 1279.75 299.542969 1280.148438 C 299.292969 1280.929688 299.042969 1281.71875 298.78125 1282.511719 C 297.128906 1282.007812 295.480469 1281.515625 293.828125 1281.015625 C 293.992188 1280.328125 294.160156 1279.640625 294.328125 1278.953125 Z M 168.058594 1049.085938 C 168.894531 1051.335938 169.710938 1053.582031 170.539062 1055.839844 C 169.738281 1056.128906 168.933594 1056.417969 168.132812 1056.707031 C 167.363281 1054.4375 166.585938 1052.171875 165.8125 1049.902344 C 166.566406 1049.632812 167.316406 1049.355469 168.058594 1049.085938 Z M 291.03125 1234.265625 C 290.523438 1232.304688 290.449219 1230.230469 290.226562 1228.195312 C 290.894531 1228.011719 291.570312 1227.824219 292.238281 1227.640625 C 293.140625 1229.5625 294.050781 1231.496094 295.347656 1234.265625 C 293.289062 1234.28125 291.105469 1234.550781 291.03125 1234.265625 Z M 258.179688 1132.808594 C 258.835938 1135.003906 259.238281 1137.261719 259.738281 1139.511719 C 255.023438 1138.542969 255.246094 1135.261719 254.984375 1132.289062 C 254.957031 1131.992188 256.082031 1131.210938 256.460938 1131.332031 C 257.140625 1131.554688 257.992188 1132.179688 258.179688 1132.808594 Z M 282.976562 1299.433594 C 282.597656 1296.96875 282.214844 1294.515625 281.707031 1291.253906 C 288.082031 1294.542969 288.148438 1294.859375 282.976562 1299.433594 Z M 276.890625 1146.960938 C 276.59375 1144.910156 276.292969 1142.855469 275.878906 1139.929688 C 281.148438 1141.285156 282.125 1143.367188 280.667969 1146.078125 C 280.265625 1146.839844 278.1875 1146.691406 276.890625 1146.960938 Z M 323.8125 1245.546875 C 323.757812 1243.101562 324.210938 1240.65625 324.507812 1238.214844 C 325.667969 1238.296875 326.828125 1238.390625 327.988281 1238.484375 C 327.90625 1241.148438 327.824219 1243.808594 327.730469 1246.476562 C 326.367188 1246.167969 323.824219 1245.878906 323.8125 1245.546875 Z M 203.4375 1053.582031 C 203.707031 1053.398438 204.703125 1054.308594 205.863281 1055.015625 C 204.730469 1056.257812 204.003906 1057.375 202.992188 1058.082031 C 201.136719 1059.382812 199.113281 1060.441406 197.15625 1061.601562 C 196.703125 1060.792969 195.734375 1059.363281 195.867188 1059.25 C 198.296875 1057.246094 200.8125 1055.339844 203.4375 1053.582031 Z M 227.097656 1243.660156 C 227.976562 1245.703125 228.394531 1247.941406 229.007812 1250.097656 C 228.082031 1250.21875 226.59375 1250.757812 226.308594 1250.386719 C 224.675781 1248.257812 223.179688 1245.980469 221.984375 1243.585938 C 221.722656 1243.0625 222.863281 1241.835938 223.855469 1240.027344 C 225.351562 1241.660156 226.59375 1242.496094 227.097656 1243.660156 Z M 222.113281 1204.121094 C 222.546875 1201.453125 222.753906 1199.066406 223.421875 1196.824219 C 223.664062 1196.027344 225.128906 1195.03125 225.917969 1195.125 C 226.679688 1195.21875 227.726562 1196.519531 227.875 1197.421875 C 228.867188 1203.40625 227.484375 1205.140625 222.113281 1204.121094 Z M 176.980469 1137.371094 C 177.738281 1139.640625 179.003906 1141.890625 179.140625 1144.203125 C 179.402344 1148.457031 176.347656 1147.101562 174.242188 1147.148438 C 173.664062 1146.65625 173.089844 1146.152344 172.523438 1145.652344 C 174.007812 1142.890625 175.496094 1140.132812 176.980469 1137.371094 Z M 266.039062 1263.070312 C 266.300781 1265.375 265.972656 1267.753906 265.863281 1270.996094 C 263.773438 1270.578125 262.382812 1270.300781 260.832031 1269.984375 C 260.933594 1267.449219 260.710938 1265.179688 261.242188 1263.117188 C 261.558594 1261.84375 263.03125 1260.867188 263.988281 1259.761719 C 264.703125 1260.859375 265.910156 1261.898438 266.039062 1263.070312 Z M 331.144531 1024.785156 C 332.019531 1030.390625 332.9375 1035.695312 333.566406 1041.046875 C 333.667969 1041.902344 332.660156 1043.195312 331.824219 1043.734375 C 331.40625 1043.992188 330.078125 1043.101562 329.363281 1042.488281 C 328.601562 1041.847656 328.0625 1040.917969 327.433594 1040.109375 C 322.105469 1033.195312 322.699219 1030.332031 331.144531 1024.785156 Z M 233.210938 1299.339844 C 239.875 1295.910156 245.675781 1292.925781 252.871094 1289.21875 C 250.632812 1296.597656 248.785156 1302.628906 246.660156 1309.636719 C 241.890625 1305.984375 237.910156 1302.933594 233.210938 1299.339844 Z M 271.609375 1028.578125 C 274.558594 1035.6875 268.804688 1044.523438 255.773438 1048.945312 C 253.316406 1043.558594 254.707031 1039.441406 260.292969 1035.808594 C 263.949219 1033.429688 267.636719 1031.105469 271.609375 1028.578125 Z M 607.03125 1056.25 C 607.664062 1056.574219 608.304688 1056.902344 608.953125 1057.214844 C 608.304688 1058.65625 607.664062 1060.105469 607.011719 1061.546875 C 606.53125 1061.359375 606.039062 1061.175781 605.554688 1061 C 606.046875 1059.410156 606.53125 1057.839844 607.03125 1056.25 Z M 149.164062 856.109375 C 149.796875 856.027344 150.4375 855.945312 151.066406 855.867188 C 151.28125 857.402344 151.492188 858.9375 151.707031 860.476562 C 151.03125 860.550781 150.363281 860.636719 149.691406 860.71875 C 149.515625 859.1875 149.339844 857.644531 149.164062 856.109375 Z M 724.761719 1034.867188 C 725.429688 1035.507812 726.105469 1036.140625 727.035156 1037.023438 C 726.144531 1037.851562 725.484375 1038.464844 724.824219 1039.078125 C 724.277344 1038.371094 723.332031 1037.675781 723.292969 1036.941406 C 723.265625 1036.273438 724.230469 1035.566406 724.761719 1034.867188 Z M 217.015625 818.476562 C 217.109375 816.925781 217.203125 815.390625 217.304688 813.847656 C 217.972656 813.894531 218.640625 813.941406 219.308594 813.980469 C 219.113281 815.523438 218.917969 817.054688 218.726562 818.589844 C 218.148438 818.550781 217.582031 818.503906 217.015625 818.476562 Z M 447.519531 800.367188 C 446.859375 800.355469 446.191406 800.335938 445.523438 800.328125 C 445.589844 799.101562 445.625 797.875 445.792969 796.65625 C 445.800781 796.59375 447.4375 796.640625 447.445312 796.703125 C 447.546875 797.921875 447.519531 799.148438 447.519531 800.367188 Z M 394.941406 879.84375 C 394.988281 879.210938 396.234375 878.144531 396.863281 878.207031 C 397.605469 878.273438 398.257812 879.339844 399.304688 880.308594 C 398.136719 881.003906 397.273438 881.914062 396.566406 881.8125 C 395.898438 881.710938 394.894531 880.503906 394.941406 879.84375 Z M 723.40625 459.085938 C 723.601562 458.304688 724.425781 457.679688 724.992188 456.984375 C 725.6875 457.589844 726.394531 458.183594 727.5 459.140625 C 726.320312 459.847656 725.585938 460.582031 724.789062 460.65625 C 724.34375 460.691406 723.304688 459.503906 723.40625 459.085938 Z M 502.574219 756.386719 C 502.5 755.140625 502.425781 753.902344 502.351562 752.667969 C 502.910156 752.613281 503.464844 752.546875 504.023438 752.492188 C 504.246094 753.691406 504.476562 754.890625 504.699219 756.085938 C 503.996094 756.179688 503.28125 756.28125 502.574219 756.386719 Z M 484.828125 574.738281 C 484.597656 574.246094 484.355469 573.761719 484.113281 573.269531 C 485.671875 572.480469 487.234375 571.679688 488.792969 570.882812 C 489.070312 571.476562 489.347656 572.070312 489.628906 572.664062 C 488.023438 573.351562 486.433594 574.050781 484.828125 574.738281 Z M 232.535156 935.261719 C 232.070312 935.308594 230.957031 934.109375 231.070312 933.757812 C 231.300781 932.988281 232.117188 931.878906 232.71875 931.871094 C 233.453125 931.851562 234.195312 932.828125 235.367188 933.683594 C 234.113281 934.4375 233.359375 935.1875 232.535156 935.261719 Z M 389.941406 846.363281 C 390.703125 846.371094 391.453125 847.292969 392.640625 848.121094 C 391.027344 849.132812 390.199219 850.042969 389.457031 849.976562 C 388.875 849.921875 387.9375 848.613281 388.011719 847.953125 C 388.085938 847.320312 389.253906 846.363281 389.941406 846.363281 Z M 505.21875 899.597656 C 504.53125 899.738281 503.847656 899.859375 503.167969 899.988281 C 502.871094 898.789062 502.59375 897.59375 502.296875 896.394531 C 503.046875 896.273438 504.429688 895.9375 504.46875 896.058594 C 504.839844 897.191406 504.996094 898.410156 505.21875 899.597656 Z M 673.929688 969.5625 C 672.890625 970.386719 672.117188 971.457031 671.394531 971.429688 C 670.753906 971.410156 669.660156 970.183594 669.660156 969.488281 C 669.660156 968.828125 670.828125 967.675781 671.488281 967.664062 C 672.203125 967.65625 672.925781 968.726562 673.929688 969.5625 Z M 744.082031 1056.558594 C 742.347656 1055.871094 740.613281 1055.191406 738.878906 1054.503906 C 739.0625 1053.992188 739.257812 1053.492188 739.441406 1052.980469 C 741.199219 1053.628906 742.953125 1054.269531 744.707031 1054.921875 C 744.5 1055.46875 744.296875 1056.007812 744.082031 1056.558594 Z M 227.71875 738.375 C 227.632812 737.613281 227.570312 736.863281 227.496094 736.097656 C 229.046875 735.933594 230.59375 735.773438 232.144531 735.605469 C 232.21875 736.398438 232.292969 737.1875 232.378906 737.976562 C 230.828125 738.105469 229.269531 738.238281 227.71875 738.375 Z M 524.234375 816.554688 C 524.960938 816.691406 525.683594 816.839844 526.398438 816.980469 C 526.09375 818.476562 525.785156 819.980469 525.480469 821.476562 C 524.800781 821.339844 524.105469 821.207031 523.417969 821.070312 C 523.699219 819.5625 523.96875 818.066406 524.234375 816.554688 Z M 675.394531 829.265625 C 674.734375 829.144531 674.066406 829.023438 673.398438 828.902344 C 673.667969 827.472656 673.929688 826.039062 674.300781 824.628906 C 674.300781 824.582031 675.941406 824.851562 675.941406 824.90625 C 675.832031 826.367188 675.609375 827.816406 675.394531 829.265625 Z M 638.71875 753.773438 C 638.417969 752.445312 638.132812 751.105469 637.835938 749.777344 C 638.746094 749.742188 639.652344 749.695312 640.5625 749.65625 C 640.5625 750.976562 640.5625 752.296875 640.5625 753.625 C 639.941406 753.671875 639.328125 753.726562 638.71875 753.773438 Z M 681.734375 878.058594 C 681.902344 878.894531 682.066406 879.730469 682.246094 880.566406 C 680.5 880.929688 678.753906 881.300781 677.011719 881.664062 C 676.84375 880.976562 676.683594 880.296875 676.535156 879.609375 C 678.261719 879.101562 680 878.578125 681.734375 878.058594 Z M 276.378906 910.070312 C 276.144531 911.464844 275.914062 912.867188 275.683594 914.261719 C 275.015625 914.152344 274.347656 914.039062 273.675781 913.929688 C 273.863281 912.570312 274.011719 911.207031 274.347656 909.886719 C 274.363281 909.785156 275.671875 909.996094 276.378906 910.070312 Z M 675.273438 1005.457031 C 675.496094 1007.09375 675.710938 1008.71875 675.925781 1010.347656 C 675.238281 1010.410156 674.550781 1010.476562 673.855469 1010.539062 C 673.734375 1008.90625 673.621094 1007.261719 673.5 1005.617188 C 674.097656 1005.570312 674.691406 1005.515625 675.273438 1005.457031 Z M 436.984375 939 C 437.265625 940.160156 437.21875 941.414062 437.292969 942.640625 C 436.585938 942.6875 435.890625 942.753906 435.183594 942.808594 C 434.945312 941.5625 434.691406 940.316406 434.453125 939.074219 C 435.332031 939.035156 436.9375 938.824219 436.984375 939 Z M 287.683594 758.78125 C 289.574219 757.957031 291.488281 757.128906 293.382812 756.300781 C 293.648438 757.015625 293.902344 757.722656 294.160156 758.4375 C 292.203125 759.070312 290.246094 759.703125 288.296875 760.335938 C 288.089844 759.8125 287.878906 759.300781 287.683594 758.78125 Z M 581.601562 1016.867188 C 584.003906 1017.464844 585.601562 1017.863281 587.382812 1018.308594 C 585.082031 1021.582031 584.878906 1021.542969 581.601562 1016.867188 Z M 112.050781 842.300781 C 112.1875 843.902344 112.320312 845.5 112.449219 847.085938 C 111.679688 847.085938 110.890625 847.078125 110.117188 847.078125 C 110.117188 845.527344 110.117188 843.964844 110.117188 842.40625 C 110.757812 842.375 111.410156 842.339844 112.050781 842.300781 Z M 653.679688 850.386719 C 653.289062 851.5 652.386719 852.449219 650.625 854.976562 C 649.882812 853.277344 648.980469 852.199219 649.222656 851.558594 C 649.648438 850.453125 650.6875 849.484375 651.691406 848.761719 C 651.886719 848.621094 653.78125 850.089844 653.679688 850.386719 Z M 561.480469 1038.761719 C 563.132812 1039.421875 564.792969 1040.082031 566.445312 1040.742188 C 566.074219 1041.484375 565.710938 1042.21875 565.339844 1042.960938 C 563.78125 1042.21875 562.222656 1041.464844 560.664062 1040.722656 C 560.933594 1040.070312 561.203125 1039.414062 561.480469 1038.761719 Z M 561.5 759.40625 C 563.289062 760.296875 564.867188 761.085938 567.214844 762.257812 C 561.730469 764.117188 561.082031 763.734375 561.5 759.40625 Z M 445.691406 927.96875 C 445.90625 928.804688 446.117188 929.652344 446.332031 930.488281 C 444.855469 930.832031 443.390625 931.175781 441.914062 931.519531 C 441.773438 930.773438 441.375 929.457031 441.542969 929.382812 C 442.871094 928.777344 444.300781 928.40625 445.691406 927.96875 Z M 645.34375 944.117188 C 645.066406 941.964844 644.859375 940.347656 644.5625 938.105469 C 649.175781 940.8125 649.175781 940.8125 645.34375 944.117188 Z M 661.882812 940.242188 C 662.085938 942.09375 662.289062 943.941406 662.496094 945.792969 C 661.722656 945.882812 660.945312 945.976562 660.175781 946.070312 C 659.933594 944.230469 659.691406 942.382812 659.460938 940.53125 C 660.265625 940.4375 661.074219 940.335938 661.882812 940.242188 Z M 740.9375 1077.425781 C 742.785156 1076.574219 744.621094 1075.707031 746.460938 1074.855469 C 746.757812 1075.542969 747.054688 1076.230469 747.351562 1076.917969 C 745.484375 1077.726562 743.628906 1078.523438 741.761719 1079.324219 C 741.496094 1078.691406 741.207031 1078.058594 740.9375 1077.425781 Z M 266.242188 977.226562 C 265.566406 977.394531 264.886719 977.5625 264.203125 977.730469 C 263.683594 975.628906 263.164062 973.53125 262.652344 971.421875 C 263.429688 971.269531 264.21875 971.113281 265.007812 970.957031 C 265.417969 973.054688 265.835938 975.144531 266.242188 977.226562 Z M 231.410156 691.859375 C 231.292969 691.832031 231.550781 690.15625 231.625 689.246094 C 233.25 689.589844 234.875 689.925781 236.5 690.25 C 236.40625 691.011719 236.320312 691.765625 236.21875 692.527344 C 234.605469 692.339844 232.988281 692.210938 231.410156 691.859375 Z M 109.710938 662.941406 C 107.882812 660.421875 106.714844 659.28125 106.898438 658.992188 C 107.539062 657.988281 108.542969 657.011719 109.617188 656.621094 C 110.027344 656.464844 111.667969 657.960938 111.605469 658.589844 C 111.492188 659.863281 110.59375 661.0625 109.710938 662.941406 Z M 629.222656 874.777344 C 629.398438 876.804688 629.613281 878.832031 629.6875 880.847656 C 629.6875 880.910156 627.625 881.125 627.617188 881.089844 C 627.28125 879.082031 627.070312 877.054688 626.835938 875.039062 C 627.636719 874.957031 628.425781 874.863281 629.222656 874.777344 Z M 171.253906 634.71875 C 169.804688 632.386719 168.757812 630.046875 173.722656 627.910156 C 173.453125 630.203125 173.183594 632.488281 172.914062 634.773438 C 172.355469 634.757812 171.808594 634.738281 171.253906 634.71875 Z M 471.984375 792.199219 C 472.457031 794.558594 472.921875 796.898438 473.394531 799.25 C 472.558594 799.417969 471.722656 799.574219 470.890625 799.742188 C 470.472656 797.382812 470.054688 795.023438 469.636719 792.664062 C 470.425781 792.511719 471.203125 792.355469 471.984375 792.199219 Z M 567.28125 987.738281 C 567.882812 989.78125 568.488281 991.824219 569.351562 994.761719 C 567.308594 994.464844 565.109375 994.390625 565.082031 994.09375 C 564.878906 992.085938 565.117188 990.023438 565.210938 987.980469 C 565.90625 987.894531 566.59375 987.820312 567.28125 987.738281 Z M 46.117188 885.835938 C 46.171875 886.71875 46.230469 887.59375 46.285156 888.476562 C 44.335938 888.746094 42.386719 889.015625 40.429688 889.285156 C 40.417969 888.140625 40.410156 886.988281 40.402344 885.835938 C 42.304688 885.835938 44.207031 885.835938 46.117188 885.835938 Z M 254.808594 972.796875 C 254.808594 976.660156 254.808594 979.207031 254.808594 981.753906 C 252.441406 979.125 250.402344 976.484375 254.808594 972.796875 Z M 710.960938 892.628906 C 710.679688 895.667969 711.035156 899.003906 707.824219 900.648438 C 707.238281 900.378906 706.652344 900.109375 706.078125 899.851562 C 707.15625 897.191406 708.242188 894.542969 709.328125 891.894531 C 709.875 892.136719 710.421875 892.386719 710.960938 892.628906 Z M 285.363281 629.015625 C 285.066406 628.949219 285.1875 626.617188 285.113281 625.324219 C 287.136719 625.511719 289.140625 625.695312 291.152344 625.882812 C 291.105469 626.988281 291.0625 628.085938 291.015625 629.179688 C 289.121094 629.179688 287.191406 629.359375 285.363281 629.015625 Z M 81.003906 858.824219 C 84.125 860.246094 84.242188 861.445312 81.941406 867.578125 C 79.195312 865.625 79.035156 864.1875 81.003906 858.824219 Z M 640.722656 770.730469 C 641.167969 773.25 641.335938 775.796875 641.601562 778.332031 C 640.738281 778.519531 639.875 778.707031 639.015625 778.871094 C 638.390625 776.1875 637.6875 773.519531 637.222656 770.804688 C 637.15625 770.445312 638.308594 769.515625 638.902344 769.515625 C 639.523438 769.503906 640.621094 770.203125 640.722656 770.730469 Z M 276.332031 831.476562 C 276.144531 832.089844 275.070312 833.011719 274.660156 832.878906 C 272.136719 832.128906 269.695312 831.113281 267.226562 830.183594 C 267.449219 829.421875 267.671875 828.660156 267.886719 827.890625 C 270.464844 828.390625 273.074219 828.808594 275.609375 829.480469 C 276.035156 829.589844 276.507812 830.910156 276.332031 831.476562 Z M 548.691406 895.648438 C 544.191406 893.976562 544.90625 890.761719 545.109375 887.789062 C 545.128906 887.492188 546.363281 886.894531 546.707031 887.074219 C 547.34375 887.390625 548.097656 888.140625 548.179688 888.792969 C 548.496094 891.058594 548.542969 893.355469 548.691406 895.648438 Z M 695.183594 919.941406 C 695.8125 920.796875 697.148438 922.160156 696.964844 922.410156 C 695.421875 924.492188 693.613281 926.371094 691.367188 928.878906 C 690.589844 927.199219 689.707031 926.015625 689.949219 925.71875 C 691.5625 923.683594 693.410156 921.84375 695.183594 919.941406 Z M 547.121094 1057.246094 C 547.121094 1054.761719 547.121094 1052.273438 547.121094 1048.972656 C 552.90625 1053.203125 552.933594 1053.527344 547.121094 1057.246094 Z M 402.628906 978.324219 C 398.757812 981.949219 396.9375 979.617188 395.425781 975.992188 C 400.59375 972.703125 400.929688 972.824219 402.628906 978.324219 Z M 564.582031 898.558594 C 569.574219 900.695312 570.222656 902.90625 568.367188 905.371094 C 567.855469 906.058594 565.824219 905.59375 564.488281 905.65625 C 564.515625 903.578125 564.542969 901.503906 564.582031 898.558594 Z M 581.871094 759.441406 C 579.660156 760.121094 577.453125 760.789062 575.246094 761.457031 C 575.207031 760.019531 574.734375 757.507812 575.207031 757.3125 C 577.035156 756.570312 579.160156 756.550781 581.183594 756.265625 C 581.417969 757.324219 581.640625 758.390625 581.871094 759.441406 Z M 717.828125 1032.332031 C 717.789062 1032.621094 715.023438 1032.574219 713.53125 1032.675781 C 713.863281 1030.34375 714.207031 1028 714.550781 1025.660156 C 715.589844 1025.734375 716.640625 1025.816406 717.679688 1025.902344 C 717.800781 1028.058594 718.085938 1030.230469 717.828125 1032.332031 Z M 120.605469 611.3125 C 118.398438 610.074219 116.53125 609.027344 114.667969 607.976562 C 116.171875 607.417969 117.746094 606.277344 119.160156 606.460938 C 120.886719 606.683594 122.472656 608.011719 124.125 608.867188 C 123.074219 609.59375 122.035156 610.316406 120.605469 611.3125 Z M 597.546875 1003.144531 C 598.679688 1003.414062 599.820312 1003.683594 600.953125 1003.953125 C 600.460938 1006.574219 599.960938 1009.183594 599.46875 1011.804688 C 598.160156 1011.292969 595.699219 1010.625 595.746094 1010.28125 C 596.050781 1007.863281 596.886719 1005.515625 597.546875 1003.144531 Z M 637.585938 724.984375 C 636.785156 724.929688 635.988281 724.875 635.191406 724.828125 C 635.355469 722.367188 635.367188 719.882812 635.859375 717.496094 C 635.921875 717.171875 639.089844 716.734375 639.597656 717.355469 C 642.523438 720.898438 638.800781 722.578125 637.585938 724.984375 Z M 506.25 802.085938 C 506.546875 801.945312 507.382812 803.003906 508.421875 803.878906 C 507.113281 804.929688 506.222656 805.921875 505.117188 806.460938 C 503.085938 807.464844 500.921875 808.199219 498.816406 809.042969 C 498.492188 808.171875 497.757812 806.609375 497.898438 806.527344 C 500.605469 804.910156 503.390625 803.414062 506.25 802.085938 Z M 296.566406 950.175781 C 295.859375 949.144531 296.730469 947.007812 296.878906 945.390625 C 299.21875 946.164062 301.546875 946.945312 303.886719 947.714844 C 303.738281 948.28125 303.589844 948.847656 303.441406 949.414062 C 301.222656 950.335938 299.285156 954.125 296.566406 950.175781 Z M 719.21875 1082.789062 C 717.9375 1087.390625 716.289062 1087.601562 709.78125 1084.023438 C 711.070312 1079.445312 711.8125 1079.351562 719.21875 1082.789062 Z M 500.457031 993.546875 C 501.015625 995.699219 501.089844 997.976562 501.359375 1000.199219 C 500.421875 1000.171875 498.878906 1000.488281 498.648438 1000.078125 C 497.359375 997.71875 496.226562 995.238281 495.417969 992.691406 C 495.234375 992.132812 496.558594 991.09375 497.8125 989.464844 C 499.039062 991.296875 500.144531 992.328125 500.457031 993.546875 Z M 253.722656 835.257812 C 253.898438 835.546875 254.066406 835.84375 254.242188 836.121094 C 254.726562 836.949219 255.171875 837.691406 255.421875 838.113281 C 255.097656 840.65625 255.171875 842.449219 254.566406 843.976562 C 254.207031 844.886719 252.804688 845.386719 251.867188 846.066406 C 251.246094 844.765625 249.851562 843.222656 250.167969 842.210938 C 250.753906 840.324219 251.8125 838.585938 252.832031 836.828125 C 253.140625 836.308594 253.4375 835.789062 253.722656 835.257812 Z M 508.328125 947.984375 C 508.382812 954.042969 506.75 955.546875 501.609375 953.707031 C 502.445312 951.144531 503.011719 948.8125 504.011719 946.703125 C 504.375 945.949219 505.980469 945.195312 506.75 945.410156 C 507.472656 945.613281 508.320312 947.066406 508.328125 947.984375 Z M 478.285156 738.179688 C 478.804688 739.257812 479.902344 740.429688 479.742188 741.386719 C 479.351562 743.664062 478.371094 745.839844 477.507812 748.394531 C 475.761719 747.796875 474.40625 747.34375 472.644531 746.738281 C 473.570312 744.164062 474.164062 741.871094 475.261719 739.855469 C 475.722656 739 477.246094 738.71875 478.285156 738.179688 Z M 184.988281 888.707031 C 182.25 888.214844 179.597656 887.074219 177.042969 885.863281 C 176.730469 885.714844 177.25 882.871094 177.351562 882.871094 C 180.523438 882.957031 183.699219 883.226562 188.300781 883.589844 C 186.667969 886.199219 185.582031 888.820312 184.988281 888.707031 Z M 467.25 880.808594 C 467.648438 883.171875 468.558594 885.578125 468.335938 887.890625 C 467.945312 892.136719 465.136719 890.324219 463.039062 890.046875 C 462.546875 889.46875 462.054688 888.894531 461.570312 888.308594 C 463.464844 885.808594 465.359375 883.308594 467.25 880.808594 Z M 534.4375 1015.132812 C 534.984375 1016.332031 536.011719 1017.539062 535.96875 1018.71875 C 535.875 1021.03125 535.179688 1023.335938 534.574219 1026.523438 C 532.570312 1025.789062 531.234375 1025.296875 529.75 1024.75 C 530.25 1022.25 530.371094 1019.980469 531.214844 1018.03125 C 531.726562 1016.824219 533.332031 1016.078125 534.4375 1015.132812 Z M 558.34375 556.382812 C 557.824219 555.222656 556.867188 554.0625 556.878906 552.898438 C 556.878906 551.238281 557.238281 549.386719 558.066406 547.976562 C 558.871094 546.601562 560.449219 545.671875 561.683594 544.546875 C 562.121094 545.066406 562.558594 545.585938 562.992188 546.097656 C 562.53125 548.773438 562.324219 551.535156 561.488281 554.082031 C 561.164062 555.09375 559.429688 555.632812 558.34375 556.382812 Z M 721.335938 987.367188 C 721.671875 989.511719 721.4375 991.734375 721.4375 994.679688 C 719.097656 994.472656 717.289062 994.316406 714.996094 994.121094 C 715.5 991.34375 715.675781 988.972656 716.425781 986.789062 C 716.761719 985.824219 718.300781 984.597656 719.171875 984.691406 C 720.007812 984.773438 721.179688 986.324219 721.335938 987.367188 Z M 179.382812 612.539062 C 180.171875 611.824219 180.921875 611.136719 181.667969 610.457031 C 184.117188 610.765625 186.585938 611.023438 189.054688 611.265625 C 186.464844 612.621094 183.984375 616.152344 179.382812 612.539062 Z M 618.789062 912.71875 C 618.085938 917.078125 613.824219 913.453125 611.179688 913.546875 C 609.871094 913.59375 608.554688 913.128906 606.996094 912.851562 C 606.707031 908.464844 609.242188 908.546875 611.597656 909.261719 C 614.234375 910.0625 619.625 907.628906 618.789062 912.71875 Z M 638.132812 992.914062 C 637.371094 995.738281 636.871094 998.433594 635.875 1000.941406 C 635.523438 1001.84375 634.019531 1002.289062 633.035156 1002.949219 C 632.472656 1001.910156 631.460938 1000.886719 631.421875 999.835938 C 631.375 998.171875 631.988281 996.480469 632.277344 994.800781 C 632.886719 991.183594 634.746094 990.65625 638.132812 992.914062 Z M 16.390625 780.367188 C 15.210938 779.867188 14.015625 779.355469 12.296875 778.621094 C 13.707031 775.257812 15.042969 772.0625 16.363281 768.921875 C 21.625 770.007812 21.585938 772.300781 16.390625 780.367188 Z M 400.429688 744.554688 C 398.757812 742.558594 397.085938 740.558594 395.136719 738.21875 C 396.835938 736.292969 398.65625 731.675781 402.109375 734.007812 C 406.460938 736.9375 401.46875 740.691406 400.429688 744.554688 Z M 82.054688 685.066406 C 81.476562 682.0625 81.050781 678.960938 81.207031 675.921875 C 81.253906 675.019531 83.363281 674.210938 85.488281 672.667969 C 86.070312 677.566406 86.636719 680.773438 86.730469 683.980469 C 86.757812 684.890625 85.550781 686.238281 84.597656 686.617188 C 84.011719 686.859375 82.183594 685.773438 82.054688 685.066406 Z M 282.382812 683.570312 C 281.9375 682.492188 280.953125 681.292969 281.148438 680.34375 C 281.816406 677.039062 282.902344 673.804688 283.820312 670.542969 C 284.414062 670.246094 285 669.945312 285.59375 669.640625 C 286.390625 670.988281 287.988281 672.429688 287.839844 673.65625 C 287.476562 676.46875 286.4375 679.257812 285.308594 681.898438 C 284.945312 682.722656 283.394531 683.03125 282.382812 683.570312 Z M 630.828125 740.660156 C 627.191406 740.058594 624.441406 739.796875 621.816406 739.054688 C 620.898438 738.792969 620.3125 737.363281 619.570312 736.472656 C 620.582031 735.820312 621.59375 734.632812 622.605469 734.621094 C 625.332031 734.621094 628.117188 734.871094 630.734375 735.550781 C 631.773438 735.820312 633.035156 737.484375 633.074219 738.542969 C 633.09375 739.351562 631.339844 740.214844 630.828125 740.660156 Z M 534.621094 557.777344 C 533.0625 555.695312 531.789062 553.988281 530.511719 552.285156 C 537.589844 546.839844 538.761719 546.757812 541.84375 551.765625 C 539.625 553.617188 537.332031 555.511719 534.621094 557.777344 Z M 715.65625 482.027344 C 714.152344 480.957031 712.957031 480.113281 711.804688 479.304688 C 715.925781 470.375 719.023438 468.253906 722.847656 472.046875 C 720.539062 475.253906 718.199219 478.503906 715.65625 482.027344 Z M 235.023438 633.027344 C 235.691406 628.707031 236.304688 624.765625 236.988281 620.371094 C 239.097656 620.742188 240.65625 621.011719 242.160156 621.28125 C 241.722656 630.742188 240.144531 633.585938 235.023438 633.027344 Z M 223.707031 1000.441406 C 222.242188 1001.386719 220.832031 1002.941406 219.273438 1003.097656 C 217.863281 1003.246094 215.679688 1002.261719 214.917969 1001.082031 C 213.601562 999.027344 213.121094 996.433594 211.753906 992.570312 C 215.542969 994.34375 218.066406 995.253906 220.285156 996.667969 C 221.667969 997.539062 222.585938 999.148438 223.707031 1000.441406 Z M 676.257812 933.722656 C 676.75 934.527344 676.566406 936.621094 675.960938 937.027344 C 675.152344 937.566406 673.277344 937.484375 672.492188 936.863281 C 670.078125 934.992188 667.980469 932.734375 665.1875 930.078125 C 667.199219 928.367188 668.574219 927.199219 670.375 925.644531 C 672.546875 928.5625 674.597656 931.027344 676.257812 933.722656 Z M 565.351562 538.441406 C 563.597656 534.277344 561.992188 530.457031 560.238281 526.277344 C 561.90625 525.488281 563.214844 524.863281 564.988281 524.019531 C 567.078125 528.183594 568.804688 531.628906 570.632812 535.273438 C 568.820312 536.359375 567.410156 537.207031 565.351562 538.441406 Z M 159.078125 958.113281 C 156.246094 959.042969 154.398438 959.765625 152.496094 960.230469 C 148.226562 961.273438 143.855469 957.027344 145.0625 952.84375 C 145.273438 952.101562 147.667969 951.152344 148.414062 951.535156 C 151.828125 953.328125 155.011719 955.546875 159.078125 958.113281 Z M 123.484375 786.910156 C 124.671875 796.417969 120.097656 800.152344 109.859375 798.589844 C 112.699219 792.671875 118.824219 791.296875 123.484375 786.910156 Z M 294.71875 866.871094 C 288.925781 864.195312 284.785156 862.28125 280.027344 860.085938 C 281.15625 858.035156 281.957031 856.574219 283.0625 854.566406 C 286.800781 856.667969 290.496094 858.386719 293.707031 860.757812 C 294.671875 861.464844 294.308594 863.992188 294.71875 866.871094 Z M 113.078125 923.425781 C 115.679688 924.949219 118.601562 925.933594 121.320312 927.140625 C 119.511719 933.152344 116.738281 933.078125 105.925781 927.039062 C 106.851562 922.320312 108.914062 920.953125 113.078125 923.425781 Z M 208.097656 889.972656 C 209.695312 888.578125 211.039062 887.398438 212.90625 885.773438 C 216.433594 890.296875 219.449219 894.164062 222.632812 898.261719 C 221.285156 899.476562 220.199219 900.480469 218.613281 901.914062 C 215.097656 897.90625 211.765625 894.125 208.097656 889.972656 Z M 391.222656 752.277344 C 386.015625 753.828125 382.226562 754.953125 377.957031 756.234375 C 377.957031 751.65625 377.957031 747.679688 377.957031 742.316406 C 382.394531 745.652344 386.179688 748.496094 391.222656 752.277344 Z M 428.976562 857.996094 C 429.8125 854.402344 433.441406 851.445312 435.910156 848.222656 C 436.613281 848.574219 437.320312 848.9375 438.023438 849.289062 C 437.53125 854.449219 437.03125 859.605469 436.53125 864.753906 C 436.03125 865.023438 435.527344 865.292969 435.019531 865.570312 C 432.847656 863.003906 428.53125 859.957031 428.976562 857.996094 Z M 743.027344 1097.425781 C 748.425781 1100.882812 753.652344 1104.234375 759.40625 1107.925781 C 758.125 1109.664062 757.09375 1111.066406 755.75 1112.886719 C 750.402344 1109.160156 745.429688 1105.6875 740.007812 1101.894531 C 741.167969 1100.175781 741.910156 1099.078125 743.027344 1097.425781 Z M 632.378906 810.496094 C 631.726562 809.742188 631.339844 808.746094 630.835938 807.847656 C 626.632812 800.199219 627.664062 797.457031 636.859375 793.277344 C 636.859375 798.945312 636.953125 804.332031 636.757812 809.714844 C 636.730469 810.578125 635.535156 811.703125 634.625 812.101562 C 634.167969 812.296875 632.992188 811.210938 632.378906 810.496094 Z M 654.679688 817.808594 C 653.890625 819.683594 651.515625 820.902344 649.863281 822.417969 C 648.628906 820.625 646.496094 818.914062 646.308594 817.019531 C 645.910156 812.875 646.496094 808.625 646.71875 803.671875 C 653.882812 807.605469 656.769531 812.761719 654.679688 817.808594 Z M 601.222656 512.925781 C 598.046875 511.074219 595.058594 509.335938 591.839844 507.460938 C 596.070312 505.386719 600.3125 503.335938 604.5625 501.308594 C 603.429688 505.257812 602.398438 508.828125 601.222656 512.925781 Z M 228.125 865.421875 C 225.121094 869.929688 222.445312 874.640625 219.070312 878.773438 C 216.125 882.378906 215.597656 882.09375 211.226562 878.550781 C 214.363281 874.109375 217.371094 869.992188 220.21875 865.765625 C 222.34375 862.597656 224.65625 862.660156 228.125 865.421875 Z M 743.082031 456.863281 C 741.910156 453.304688 738.570312 449.253906 743.609375 444.867188 C 748.027344 451.511719 752.203125 457.792969 756.796875 464.714844 C 749.113281 465.078125 745.03125 462.839844 743.082031 456.863281 Z M 261.175781 746.375 C 259.757812 746.171875 258.484375 744.871094 257.140625 744.074219 C 257.363281 743.488281 257.59375 742.902344 257.816406 742.316406 C 264.304688 740.476562 270.78125 738.628906 277.269531 736.789062 C 279.460938 743.617188 277.472656 746.710938 270.828125 746.832031 C 267.609375 746.898438 264.351562 746.824219 261.175781 746.375 Z M 501.394531 592.011719 C 499.59375 591.539062 497.988281 591.109375 496.214844 590.636719 C 495.652344 590.488281 495.066406 590.328125 494.453125 590.171875 C 496.765625 582.699219 498.953125 575.628906 501.359375 567.878906 C 503.59375 568.707031 505.109375 569.273438 506.984375 569.96875 C 505.460938 575.992188 503.984375 581.800781 502.445312 587.867188 C 502.101562 589.242188 501.75 590.609375 501.394531 592.011719 Z M 775.742188 444.421875 C 772.25 433.398438 773.625 426.773438 780.828125 422.648438 C 780.957031 426.792969 781.039062 430.929688 781.097656 435.074219 C 779.351562 438.109375 777.597656 441.1875 775.742188 444.421875 Z M 431.351562 819.769531 C 427.195312 815.417969 423.730469 811.796875 419.648438 807.519531 C 426.757812 805.160156 432.9375 803.105469 440.625 800.550781 C 437.273438 807.492188 434.535156 813.171875 431.351562 819.769531 Z M 450.527344 898.550781 C 452.355469 906.039062 445.3125 913.882812 431.761719 916.25 C 430.15625 910.535156 432.160156 906.6875 438.238281 903.957031 C 442.21875 902.171875 446.210938 900.445312 450.527344 898.550781 Z M 671.226562 513.371094 C 671.042969 513.230469 670.914062 513.101562 670.734375 512.96875 C 665.722656 509.160156 664.898438 505.265625 668.042969 500.769531 C 668.640625 499.941406 669.296875 499.132812 670.050781 498.4375 C 676.269531 492.683594 682.515625 486.953125 688.527344 481.433594 C 688.5 481.199219 688.714844 481.832031 688.640625 482.4375 C 687.765625 490.074219 686.855469 497.757812 685.875 506.074219 C 685.492188 506.289062 685.121094 506.523438 684.742188 506.734375 C 683.953125 507.199219 683.152344 507.65625 682.375 508.128906 C 682.28125 508.054688 682.199219 507.988281 682.105469 507.914062 C 679.183594 505.59375 676.378906 503.371094 673.195312 500.835938 C 672.507812 505.191406 671.925781 508.910156 671.332031 512.710938 C 671.292969 512.925781 671.265625 513.148438 671.226562 513.371094 Z M 1081.308594 769.515625 C 1081.308594 803.191406 1063.878906 830.480469 1042.375 830.480469 C 1020.871094 830.480469 1003.441406 803.191406 1003.441406 769.515625 C 1003.441406 735.839844 1020.871094 708.539062 1042.375 708.539062 C 1063.878906 708.539062 1081.308594 735.839844 1081.308594 769.515625 Z M 1003.441406 885.140625 C 1002.707031 885.140625 1001.972656 884.816406 1001.480469 884.191406 C 956.777344 827.890625 957.832031 774.261719 966.605469 739.183594 C 976.082031 701.234375 995.839844 676.960938 996.675781 675.949219 C 997.546875 674.882812 999.125 674.734375 1000.191406 675.617188 C 1001.25 676.488281 1001.398438 678.070312 1000.527344 679.128906 C 1000.332031 679.378906 980.570312 703.6875 971.394531 740.597656 C 959.125 789.957031 970.566406 837.21875 1005.398438 881.078125 C 1006.253906 882.15625 1006.078125 883.738281 1005 884.59375 C 1004.535156 884.964844 1003.988281 885.140625 1003.441406 885.140625 Z M 1015.636719 671.480469 L 1015.636719 671.472656 L 736.316406 570.882812 C 717.566406 631.4375 705.222656 708.257812 711.015625 801.917969 C 717.234375 902.507812 734.542969 975.339844 752.511719 1025.984375 L 1029.140625 891.878906 C 1042.097656 891.878906 1054.234375 886.414062 1064.695312 876.925781 C 1085.894531 857.679688 1100.15625 821.792969 1100.15625 780.664062 C 1100.15625 729.769531 1078.320312 686.894531 1048.527344 673.671875 C 1042.363281 670.941406 1035.867188 669.445312 1029.140625 669.445312 C 1024.527344 669.445312 1020.007812 670.160156 1015.636719 671.480469 "/>
</g>
</svg>
